<svg id="Capa_1" enable-background="new 0 0 511.64 511.64" height="512" viewBox="0 0 511.64 511.64" width="512" xmlns="http://www.w3.org/2000/svg"><g fill="#ff9100"><path d="m242.524 311.516c5.939 5.939 5.94 15.273 0 21.213l-165.706 165.706c-5.94 5.94-15.274 5.939-21.213 0-5.94-5.94-5.94-15.273 0-21.213l165.705-165.706c5.941-5.94 15.273-5.94 21.214 0z"/><path d="m242.524 247.877-208.132 208.132c-5.863 5.863-15.351 5.863-21.213 0-5.863-5.863-5.863-15.351 0-21.213l208.131-208.133c5.863-5.863 15.351-5.863 21.213 0 5.863 5.863 5.863 15.351.001 21.214z"/><path d="m178.884 226.663-102.066 102.066c-17.546 17.546-46.093 17.546-63.64 0s-17.546-46.093 0-63.64l21.213-21.213c5.863-5.863 15.351-5.863 21.213 0 5.863 5.863 5.863 15.351 0 21.213l-21.213 21.213c-5.852 5.852-5.852 15.361 0 21.213s15.361 5.852 21.213 0l102.067-102.065c5.863-5.863 15.351-5.863 21.213 0 5.863 5.863 5.863 15.351 0 21.213z"/></g><path d="m55.605 498.435 186.919-186.919c5.939 5.939 5.94 15.273 0 21.213l-165.706 165.706c-5.94 5.94-15.274 5.939-21.213 0z" fill="#ff641a"/><path d="m246.524 456.009-21.213 21.213c-5.94 5.94-15.274 5.939-21.213 0-5.94-5.94-5.94-15.273 0-21.213l75.337-75.337-38.184-3.818c-1.697 1.273-58.367 57.942-58.367 57.942-17.607 17.607-17.607 46.032 0 63.64 17.606 17.606 46.032 17.607 63.64 0l21.213-21.213c5.94-5.94 5.939-15.274 0-21.213-5.941-5.942-15.273-5.942-21.213-.001z" fill="#ff641a"/><path d="m178.884 56.958-21.213 21.213c-40.941 40.941-40.941 107.551 0 148.492 18.455 18.455 42.851 29.274 68.943 30.758 1.273.001 2.544-.423 3.606-.636l65.337 65.337-53.033 53.033c-3.818 3.818-5.303 9.545-3.818 14.85 1.696 5.516 5.939 9.334 11.455 10.605 71.488 14.214 144.674-8.06 196.222-59.608l8.273-8.273c68.731-68.731 75.307-176.706 19.516-252.861-5.728-7.849-12.304-15.699-19.516-22.911-75.944-75.943-199.828-75.943-275.772.001z" fill="#ffb64c"/><path d="m474.171 79.868c55.791 76.155 49.215 184.13-19.516 252.861l-8.273 8.273c-51.548 51.548-124.734 73.822-196.222 59.608-5.516-1.271-9.759-5.09-11.455-10.605-1.485-5.305 0-11.031 3.818-14.85l53.033-53.033-31.82-31.82z" fill="#ff9100"/><path d="m200.097 78.171-21.213 21.213c-29.274 29.274-29.274 76.792 0 106.066 11.667 11.667 26.729 18.668 42.639 21.001l31.607 10.819 63.64 63.64 10.607 31.82-41.789 41.789c51.759 2.121 102.247-17.394 139.582-54.729l8.273-8.273c57.064-57.064 63.427-146.159 19.303-210.222-5.516-8.061-12.092-15.911-19.303-23.123-64.277-64.278-169.069-64.278-233.346-.001z" fill="#ff9100"/><path d="m452.746 101.294c44.124 64.063 37.76 153.159-19.303 210.222l-8.273 8.273c-37.335 37.335-87.823 56.85-139.582 54.729l41.789-41.789-10.607-31.82-31.82-31.82z" fill="#ff641a"/><path d="m306.163 226.663c-2.279 2.279-4.62 4.413-7.043 6.443-6.329 5.334-15.796 4.526-21.13-1.823-5.324-6.318-4.961-15.755 1.823-21.13 1.761-1.492 3.48-3.045 5.138-4.703 17.546-17.546 17.546-46.093 0-63.64-17.546-17.546-46.093-17.546-63.64 0-5.852 5.852-5.852 15.361 0 21.213s15.361 5.852 21.213 0c5.863-5.863 15.351-5.863 21.213 0 5.863 5.863 5.863 15.351 0 21.213-17.546 17.546-46.093 17.546-63.64 0s-17.546-46.093 0-63.64c29.241-29.241 76.825-29.241 106.066 0s29.241 76.827 0 106.067z" fill="#ffb64c"/><path d="m221.31 226.663c-29.274 29.274-29.274 76.792 0 106.066s76.792 29.274 106.066 0 29.274-76.792 0-106.066-76.791-29.274-106.066 0z" fill="#e6ffff"/><path d="m327.376 226.663c29.274 29.274 29.274 76.792 0 106.066s-76.792 29.274-106.066 0z" fill="#d9f2ff"/><path d="m284.95 269.09c5.939 5.939 5.94 15.273 0 21.213s-15.274 5.939-21.213 0c-5.94-5.94-5.94-15.273 0-21.213 5.94-5.941 15.273-5.941 21.213 0z" fill="#697c86"/><path d="m284.95 269.09c5.939 5.939 5.94 15.273 0 21.213s-15.274 5.939-21.213 0z" fill="#596c76"/></svg>